<svg width="66" height="58" viewBox="0 0 66 58" fill="none" xmlns="http://www.w3.org/2000/svg">
<path fill-rule="evenodd" clip-rule="evenodd" d="M44.8808 4.63828C45.7161 3.95569 46.936 4.08518 47.6055 4.9275L64.7877 26.545C65.4572 27.3874 65.3228 28.6235 64.4875 29.3061L30.6101 56.9888C29.9268 57.5471 28.9288 57.4412 28.3812 56.7522L29.8937 55.5162C29.7718 55.3629 29.5498 55.3394 29.3978 55.4636L63.2752 27.781L46.093 6.16344L42.2484 9.30506L41.0361 7.7799L44.8808 4.63828Z" fill="#6B83DA"/>
<path fill-rule="evenodd" clip-rule="evenodd" d="M28.227 1.65175C28.7949 0.739516 29.9928 0.472063 30.9027 1.05438L54.0437 15.8659C54.9535 16.4482 55.2306 17.6598 54.6627 18.572L31.5497 55.6968C31.0193 56.5489 29.9004 56.7987 29.0506 56.2548L30.079 54.603C30.0189 54.5646 29.9399 54.5822 29.9024 54.6424L53.0154 17.5176L29.8743 2.70614L27.0687 7.21253L25.4214 6.15814L28.227 1.65175Z" fill="#6B83DA"/>
<path fill-rule="evenodd" clip-rule="evenodd" d="M13.3588 4.29863C13.6511 3.26732 14.7309 2.67688 15.7707 2.97984L42.0619 10.6405C43.1016 10.9435 43.7076 12.0251 43.4153 13.0564L31.3434 55.6499C31.1265 56.4151 30.3057 56.834 29.5477 56.5662L30.1827 54.7329C29.8779 54.6253 29.5479 54.7937 29.4607 55.1013L41.5326 12.5079L15.2415 4.8472L13.4061 11.3227L11.5235 10.7742L13.3588 4.29863Z" fill="#6B83DA"/>
<path fill-rule="evenodd" clip-rule="evenodd" d="M0 11.4679C0 10.3969 0.878795 9.52869 1.96284 9.52869H29.3141C30.3981 9.52869 31.2769 10.3969 31.2769 11.4679V55.2559C31.2769 56.3269 30.3981 57.1951 29.3141 57.1951H1.96285C0.878797 57.1951 0 56.3269 0 55.2559V11.4679ZM29.3141 11.4679H1.96284V55.2559H29.3141V11.4679Z" fill="#6B83DA"/>
<path fill-rule="evenodd" clip-rule="evenodd" d="M22.5045 46.9234C21.4205 46.9234 20.5417 47.7916 20.5417 48.8626C20.5417 49.9336 21.4205 50.8018 22.5045 50.8018C23.5886 50.8018 24.4674 49.9336 24.4674 48.8626C24.4674 47.7916 23.5886 46.9234 22.5045 46.9234ZM18.5789 48.8626C18.5789 46.7207 20.3364 44.9843 22.5045 44.9843C24.6726 44.9843 26.4302 46.7207 26.4302 48.8626C26.4302 51.0046 24.6726 52.741 22.5045 52.741C20.3364 52.741 18.5789 51.0046 18.5789 48.8626Z" fill="#6B83DA"/>
</svg>
