<svg width="66" height="66" viewBox="0 0 66 66" fill="none" xmlns="http://www.w3.org/2000/svg">
<path d="M51.7918 17.6783H14.2087C13.6742 17.6783 13.2411 18.1115 13.2411 18.6459C13.2411 19.1804 13.6742 19.6135 14.2087 19.6135H51.7918C52.3262 19.6135 52.7593 19.1804 52.7593 18.6459C52.7593 18.1115 52.3262 17.6783 51.7918 17.6783Z" fill="#6B83DA"/>
<path d="M51.7918 28.2135H14.2087C13.6742 28.2135 13.2411 28.6466 13.2411 29.1811C13.2411 29.7154 13.6742 30.1486 14.2087 30.1486H51.7918C52.3262 30.1486 52.7593 29.7155 52.7593 29.1811C52.7593 28.6466 52.3262 28.2135 51.7918 28.2135Z" fill="#6B83DA"/>
<path d="M39.4701 35.0507H26.5297C25.9953 35.0507 25.5621 35.4838 25.5621 36.0182C25.5621 36.5525 25.9953 36.9858 26.5297 36.9858H39.4701C40.0045 36.9858 40.4377 36.5527 40.4377 36.0182C40.4377 35.4838 40.0045 35.0507 39.4701 35.0507Z" fill="#6B83DA"/>
<path d="M51.7917 22.9244H23.7579C23.2235 22.9244 22.7903 23.3576 22.7903 23.892C22.7903 24.4263 23.2235 24.8596 23.7579 24.8596H51.7917C52.3261 24.8596 52.7592 24.4265 52.7592 23.892C52.7592 23.3576 52.3261 22.9244 51.7917 22.9244Z" fill="#6B83DA"/>
<path d="M19.2564 22.9243H14.2087C13.6742 22.9243 13.2411 23.3574 13.2411 23.8919C13.2411 24.4263 13.6742 24.8595 14.2087 24.8595H19.2564C19.7908 24.8595 20.2239 24.4263 20.2239 23.8919C20.2239 23.3576 19.7908 22.9243 19.2564 22.9243Z" fill="#6B83DA"/>
<path d="M61.005 16.043C60.78 15.8219 60.4821 15.7002 60.1643 15.7002C60.1641 15.7002 60.1639 15.7002 60.1637 15.7002C58.2026 15.7002 56.5976 14.1672 56.5093 12.2097C56.4803 11.5731 55.9572 11.0746 55.3185 11.0746H10.4514C9.8125 11.0746 9.28926 11.5733 9.26039 12.2103C9.17621 14.0809 7.64494 15.6123 5.77425 15.6964C5.13745 15.7251 4.63871 16.2483 4.63871 16.8874V41.8979C4.63871 42.5371 5.13745 43.0602 5.77425 43.0888C7.64494 43.1731 9.17621 44.7043 9.26039 46.5756C9.28939 47.2121 9.81262 47.7106 10.4514 47.7106H39.014C39.5485 47.7106 39.9816 47.2774 39.9816 46.743C39.9816 46.2087 39.5485 45.7754 39.014 45.7754H11.1168C10.7168 43.4449 8.90422 41.6324 6.57373 41.2323V17.5527C8.90422 17.1527 10.7168 15.3398 11.1168 13.0097H54.6534C55.0698 15.4138 57.0053 17.2695 59.4263 17.5871V34.0187C59.4263 34.553 59.8595 34.9862 60.3939 34.9862C60.9283 34.9862 61.3615 34.5531 61.3615 34.0187V16.8928C61.3615 16.5707 61.2349 16.2688 61.005 16.043Z" fill="#6B83DA"/>
<path d="M63.3142 6.24493H2.68576C1.20489 6.24493 0 7.44982 0 8.9307V49.8546C0 51.3356 1.20489 52.5403 2.68576 52.5403H43.2974L41.8596 55.5532C41.6749 55.9401 41.7199 56.3937 41.9766 56.7369C42.2336 57.0801 42.6562 57.2507 43.0792 57.183L45.756 56.7527L47.2492 59.2036C47.4585 59.5475 47.8305 59.7551 48.2303 59.7551C48.2497 59.7551 48.2693 59.7546 48.2889 59.7535C48.7107 59.7321 49.0857 59.4821 49.2678 59.1007L51.8622 53.6644L54.4563 59.1004C54.6381 59.4817 55.0131 59.732 55.435 59.7537C55.4547 59.7547 55.4745 59.7552 55.4941 59.7552C55.8939 59.7552 56.2659 59.5477 56.4752 59.2039L57.9684 56.753L60.6452 57.1834C61.0695 57.2512 61.4914 57.0801 61.748 56.7367C62.0048 56.3933 62.0494 55.9398 61.8647 55.5536L60.4269 52.5407H63.3142C64.7951 52.5407 66 51.336 66 49.8549V8.9307C66 7.44982 64.7951 6.24493 63.3142 6.24493ZM48.1466 56.9573L47.1338 55.295C46.8899 54.8947 46.4333 54.684 45.97 54.7584L44.2512 55.0348L46.0618 51.2408C46.7754 51.969 47.7921 52.3624 48.8475 52.263C49.2083 52.2285 49.57 52.3257 49.8656 52.5357C49.963 52.605 50.0642 52.6665 50.1667 52.7245L48.1466 56.9573ZM52.0929 51.2199C52.09 51.2203 52.087 51.2206 52.0839 51.2211C51.9372 51.2428 51.7881 51.2428 51.6414 51.2212C51.6377 51.2207 51.6339 51.2203 51.6303 51.2198C51.403 51.1846 51.1821 51.0976 50.9864 50.9585C50.4012 50.5424 49.7024 50.3212 48.9895 50.3212C48.8815 50.3212 48.7732 50.3264 48.6649 50.3365C48.0244 50.397 47.4158 50.0452 47.1485 49.461C47.0298 49.2017 46.8783 48.9616 46.7025 48.7421C46.6947 48.7311 46.6862 48.7208 46.6781 48.7103C46.6683 48.6984 46.6592 48.6862 46.6494 48.6744C46.6381 48.6613 46.6264 48.6488 46.6144 48.6363C46.2945 48.2681 45.8991 47.9675 45.4489 47.7615C44.8645 47.4942 44.5127 46.8847 44.5733 46.2449C44.6512 45.4217 44.4304 44.5973 43.9514 43.9235C43.5789 43.3997 43.5789 42.696 43.9512 42.1723C44.4304 41.4985 44.6512 40.674 44.5733 39.8508C44.5127 39.211 44.8647 38.6016 45.4489 38.3342C46.2008 37.9902 46.8043 37.3866 47.1484 36.6347C47.4158 36.0504 48.0266 35.6985 48.6649 35.7592C49.489 35.8369 50.3128 35.6161 50.9865 35.1371C51.5104 34.7648 52.2141 34.7648 52.7377 35.1371C53.4117 35.6161 54.2355 35.8364 55.0593 35.7592C55.6996 35.6983 56.3087 36.0505 56.576 36.6347C56.9201 37.3866 57.5236 37.9902 58.2754 38.3341C58.8598 38.6016 59.2117 39.211 59.1511 39.8507C59.0732 40.674 59.294 41.4985 59.7731 42.1721C60.1455 42.6959 60.1455 43.3996 59.7731 43.9233C59.294 44.5973 59.0732 45.4217 59.1511 46.2448C59.2117 46.8846 58.8598 47.494 58.2753 47.7615C57.8261 47.9671 57.4316 48.267 57.112 48.6339C57.0989 48.6476 57.086 48.6614 57.0739 48.6757C57.0655 48.6858 57.0576 48.6962 57.0493 48.7064C57.0396 48.7188 57.0298 48.7309 57.0208 48.7436C56.8455 48.9628 56.6944 49.2023 56.576 49.461C56.3086 50.0452 55.6991 50.3973 55.0593 50.3365C54.2369 50.2591 53.4119 50.4795 52.7377 50.9585C52.5418 51.0977 52.3206 51.1849 52.0929 51.2199ZM57.7543 54.7583C57.2908 54.6842 56.8345 54.8947 56.5905 55.2952L55.5778 56.9574L53.5577 52.7245C53.6602 52.6665 53.7613 52.605 53.8588 52.5357C54.1545 52.3256 54.5165 52.2281 54.8769 52.2629C55.9327 52.3624 56.9491 51.969 57.6627 51.2408L59.4732 55.0347L57.7543 54.7583ZM64.065 49.8547C64.065 50.2686 63.7283 50.6054 63.3142 50.6054H59.5034L59.0045 49.56C59.0297 49.5467 59.0547 49.5328 59.0807 49.521C60.4131 48.9111 61.2155 47.5212 61.0775 46.0625C61.0433 45.7016 61.1401 45.34 61.3502 45.0444C62.1992 43.8501 62.1992 42.2452 61.3501 41.0509C61.1401 40.7555 61.0433 40.394 61.0775 40.0329C61.2155 38.5742 60.4131 37.1844 59.0806 36.5745C58.751 36.4236 58.4863 36.1589 58.3354 35.8293C57.7256 34.4968 56.3351 33.6946 54.8768 33.8325C54.5156 33.867 54.1543 33.7699 53.8588 33.5598C52.6645 32.7108 51.0595 32.7107 49.8653 33.5598C49.5697 33.7699 49.2074 33.867 48.8474 33.8324C47.3868 33.695 45.9985 34.4968 45.3889 35.8292C45.238 36.1589 44.9733 36.4234 44.6436 36.5744C43.3112 37.1842 42.5088 38.574 42.6468 40.0328C42.681 40.3939 42.5842 40.7553 42.3741 41.0509C41.5251 42.2452 41.5251 43.8501 42.3741 45.0443C42.5842 45.3397 42.681 45.7013 42.6468 46.0624C42.5088 47.5212 43.3112 48.9111 44.6436 49.5208C44.6696 49.5327 44.6945 49.5466 44.7196 49.5599L44.2208 50.6054H2.68576C2.27184 50.6054 1.93501 50.2687 1.93501 49.8547V8.9307C1.93501 8.51678 2.27171 8.17995 2.68576 8.17995H63.3142C63.7282 8.17995 64.065 8.51678 64.065 8.9307V49.8547Z" fill="#6B83DA"/>
<path d="M51.7916 37.0364C48.4769 37.0364 45.7802 39.7331 45.7802 43.0477C45.7802 46.3623 48.4769 49.0591 51.7916 49.0591C55.1063 49.0591 57.8029 46.3622 57.8029 43.0477C57.8029 39.733 55.1063 37.0364 51.7916 37.0364ZM51.7916 47.1239C49.5439 47.1239 47.7152 45.2953 47.7152 43.0475C47.7152 40.7999 49.5439 38.9713 51.7916 38.9713C54.0392 38.9713 55.8679 40.7999 55.8679 43.0475C55.8679 45.2953 54.0392 47.1239 51.7916 47.1239Z" fill="#6B83DA"/>
</svg>
