<svg width="227" height="52" viewBox="0 0 227 52" fill="none" xmlns="http://www.w3.org/2000/svg">
<path d="M4.82581 48.098C5.97381 48.098 6.93981 47.818 7.89181 46.908L7.20581 46.124C6.74381 46.628 6.00181 47.16 4.86781 47.16C3.22981 47.16 2.05381 46.096 2.05381 44.346C2.05381 42.624 3.20181 41.56 4.85381 41.56C5.97381 41.56 6.67381 42.05 7.19181 42.582L7.84981 41.798C7.00981 40.986 6.01581 40.622 4.81181 40.622C2.41781 40.622 0.84981 42.106 0.84981 44.36C0.84981 46.684 2.50181 48.098 4.82581 48.098ZM17.9358 40.72L17.8658 42.19C17.3478 41.168 16.2698 40.608 14.9398 40.608C12.6578 40.608 11.2858 42.232 11.2858 44.388C11.2858 46.516 12.6158 48.112 14.8838 48.112C16.1018 48.112 17.2778 47.636 17.8518 46.432L17.9498 48H18.9998V40.72H17.9358ZM15.1918 47.146C13.5958 47.146 12.4898 46.082 12.4898 44.374C12.4898 42.624 13.5958 41.574 15.1918 41.574C16.7038 41.574 17.8658 42.722 17.8658 44.374C17.8658 46.054 16.6478 47.146 15.1918 47.146ZM23.4413 48.056C25.2053 48.056 25.7233 46.628 25.8073 43.702C25.8213 43.058 25.8353 42.344 25.8353 41.546H28.9153V48H30.0633V40.72H24.6733C24.6733 41.812 24.7013 42.806 24.6733 43.618C24.5753 46.18 24.2953 47.146 23.1193 47.146C22.9933 47.146 22.8393 47.132 22.6993 47.104L22.6713 48C22.8813 48.028 23.1613 48.056 23.4413 48.056ZM38.0876 48.112C40.3416 48.112 41.9936 46.656 41.9936 44.374C41.9936 42.092 40.3416 40.622 38.0876 40.622C35.8056 40.622 34.1676 42.064 34.1676 44.374C34.1676 46.656 35.8196 48.112 38.0876 48.112ZM38.0876 47.146C36.5056 47.146 35.3576 46.11 35.3576 44.374C35.3576 42.638 36.5056 41.574 38.0876 41.574C39.6556 41.574 40.8176 42.638 40.8176 44.374C40.8176 46.11 39.6556 47.146 38.0876 47.146ZM46.0647 48H47.2267V44.808H51.3847V48H52.5467V40.72H51.3847V43.884H47.2267V40.72H46.0647V48ZM57.0593 44.682H61.8613V43.814H57.0593V44.682ZM69.8345 48.098C70.9825 48.098 71.9485 47.818 72.9005 46.908L72.2145 46.124C71.7525 46.628 71.0105 47.16 69.8765 47.16C68.2385 47.16 67.0625 46.096 67.0625 44.346C67.0625 42.624 68.2105 41.56 69.8625 41.56C70.9825 41.56 71.6825 42.05 72.2005 42.582L72.8585 41.798C72.0185 40.986 71.0245 40.622 69.8205 40.622C67.4265 40.622 65.8585 42.106 65.8585 44.36C65.8585 46.684 67.5105 48.098 69.8345 48.098ZM78.6045 48H79.7525V41.602H82.3705V40.72H75.9725V41.602H78.6045V48ZM91.3068 40.72L89.9908 44.136C89.6128 45.158 89.3188 45.984 88.9968 46.838H88.9688C88.6328 45.942 88.2688 45.018 87.9188 44.136L86.5328 40.72H85.3008L88.3808 48.084L87.4428 50.38H88.6048L92.4548 40.72H91.3068ZM102.591 47.216V40.72H97.3693C97.3973 45.494 96.5853 46.894 96.3333 47.216H95.2973V49.68H96.2073L96.2633 48H102.787L102.843 49.68H103.753V47.216H102.591ZM101.443 47.216H97.5653C97.7333 46.866 98.4193 45.55 98.4193 41.504H101.443V47.216ZM107.683 48H108.747L113.129 42.176L113.157 42.19C113.115 43.044 113.115 43.884 113.101 44.626V48H114.193V40.72H113.143L108.761 46.488L108.733 46.474C108.761 45.802 108.775 45.088 108.789 44.388V40.72H107.683V48ZM121.252 40.72C119.516 40.72 118.452 41.7 118.452 43.128C118.452 44.248 119.096 45.088 120.216 45.396L118.298 48H119.6L121.35 45.536H123.59V48H124.738V40.72H121.252ZM123.59 44.78H121.448C120.314 44.78 119.628 44.136 119.628 43.128C119.628 42.12 120.314 41.49 121.448 41.49H123.59V44.78ZM141.6 48L138.59 44.276L141.502 40.72H140.214L137.708 43.87L136.42 43.856V40.72H135.286V48H136.42V44.78H137.736L140.256 48H141.6ZM149.399 40.622C148.251 40.622 147.047 41.098 146.473 42.162L146.347 40.72H145.353V50.38H146.515V46.712C147.089 47.608 148.153 48.098 149.385 48.098C151.737 48.098 153.067 46.446 153.067 44.36C153.067 42.274 151.751 40.622 149.399 40.622ZM149.175 47.146C147.649 47.146 146.487 45.97 146.487 44.36C146.487 42.694 147.677 41.574 149.189 41.574C150.785 41.574 151.877 42.652 151.877 44.36C151.877 46.068 150.785 47.146 149.175 47.146ZM163.302 40.72L163.232 42.19C162.714 41.168 161.636 40.608 160.306 40.608C158.024 40.608 156.652 42.232 156.652 44.388C156.652 46.516 157.982 48.112 160.25 48.112C161.468 48.112 162.644 47.636 163.218 46.432L163.316 48H164.366V40.72H163.302ZM160.558 47.146C158.962 47.146 157.856 46.082 157.856 44.374C157.856 42.624 158.962 41.574 160.558 41.574C162.07 41.574 163.232 42.722 163.232 44.374C163.232 46.054 162.014 47.146 160.558 47.146ZM172.335 48.098C173.483 48.098 174.449 47.818 175.401 46.908L174.715 46.124C174.253 46.628 173.511 47.16 172.377 47.16C170.739 47.16 169.563 46.096 169.563 44.346C169.563 42.624 170.711 41.56 172.363 41.56C173.483 41.56 174.183 42.05 174.701 42.582L175.359 41.798C174.519 40.986 173.525 40.622 172.321 40.622C169.927 40.622 168.359 42.106 168.359 44.36C168.359 46.684 170.011 48.098 172.335 48.098ZM182.674 48.112C184.928 48.112 186.58 46.656 186.58 44.374C186.58 42.092 184.928 40.622 182.674 40.622C180.392 40.622 178.754 42.064 178.754 44.374C178.754 46.656 180.406 48.112 182.674 48.112ZM182.674 47.146C181.092 47.146 179.944 46.11 179.944 44.374C179.944 42.638 181.092 41.574 182.674 41.574C184.242 41.574 185.404 42.638 185.404 44.374C185.404 46.11 184.242 47.146 182.674 47.146ZM196.965 48L193.955 44.276L196.867 40.72H195.579L193.073 43.87L191.785 43.856V40.72H190.651V48H191.785V44.78H193.101L195.621 48H196.965Z" fill="#EFF6FB"/>
<path d="M22.869 25.215C20.925 25.215 19.521 24.765 18.657 23.865C17.811 22.947 17.388 21.462 17.388 19.41V9.852L11.475 24H10.584L3.348 9.312V24H1.998V6.18H5.292L11.826 19.437L17.361 6.18H20.898V19.41C20.898 21.102 21.042 22.344 21.33 23.136C21.618 23.928 22.131 24.396 22.869 24.54V25.215ZM28.5761 24.27C27.1181 24.27 25.9841 23.946 25.1741 23.298C24.3821 22.632 23.9861 21.741 23.9861 20.625C23.9861 19.725 24.1931 18.978 24.6071 18.384C25.0391 17.79 25.7861 17.34 26.8481 17.034C27.9101 16.728 29.3861 16.575 31.2761 16.575H31.6811C31.6811 15.009 31.4651 13.902 31.0331 13.254C30.6011 12.588 29.9621 12.255 29.1161 12.255C28.4141 12.255 27.8381 12.426 27.3881 12.768C26.9381 13.11 26.6141 13.749 26.4161 14.685H24.9311C24.9311 14.073 24.9671 13.551 25.0391 13.119C25.1291 12.687 25.3181 12.309 25.6061 11.985C26.1641 11.355 27.5141 11.04 29.6561 11.04C31.4561 11.04 32.8241 11.517 33.7601 12.471C34.7141 13.407 35.1911 14.82 35.1911 16.71V24H32.8961L31.9511 22.785H31.8161C31.6541 23.037 31.4021 23.289 31.0601 23.541C30.4481 24.027 29.6201 24.27 28.5761 24.27ZM29.3861 22.92C29.7641 22.92 30.0881 22.848 30.3581 22.704C30.6281 22.542 30.8891 22.326 31.1411 22.056C31.3751 21.804 31.5551 21.507 31.6811 21.165V17.79H31.2761C29.9981 17.79 29.0711 18.024 28.4951 18.492C27.9191 18.942 27.6311 19.653 27.6311 20.625C27.6311 21.363 27.7841 21.93 28.0901 22.326C28.3961 22.722 28.8281 22.92 29.3861 22.92ZM44.0497 24.27C42.6637 24.27 41.4847 23.973 40.5127 23.379C39.5407 22.785 38.8027 21.993 38.2987 21.003C37.8127 19.995 37.5697 18.879 37.5697 17.655C37.5697 16.431 37.8127 15.324 38.2987 14.334C38.8027 13.326 39.5407 12.525 40.5127 11.931C41.4847 11.337 42.6637 11.04 44.0497 11.04C46.2097 11.04 47.6047 11.355 48.2347 11.985C48.5407 12.291 48.7297 12.696 48.8017 13.2C48.8737 13.704 48.9097 14.559 48.9097 15.765H48.0997C48.0277 14.631 47.6767 13.767 47.0467 13.173C46.4167 12.561 45.5527 12.255 44.4547 12.255C43.4647 12.255 42.6727 12.714 42.0787 13.632C41.5027 14.532 41.2147 15.873 41.2147 17.655C41.2147 21.255 42.3397 23.055 44.5897 23.055C45.4537 23.055 46.1737 22.866 46.7497 22.488C47.3437 22.092 47.9107 21.534 48.4507 20.814L49.2877 21.435C48.7657 22.245 48.1087 22.92 47.3167 23.46C46.5247 24 45.4357 24.27 44.0497 24.27ZM54.7712 12.525H53.9612C53.1152 12.525 52.4762 12.75 52.0442 13.2C51.6122 13.65 51.3962 14.37 51.3962 15.36H50.5862V13.47C50.5862 12.03 51.2612 11.31 52.6112 11.31H62.3582V12.525H58.2812V24H54.7712V12.525ZM69.4356 24.27C68.1936 24.27 67.1046 23.982 66.1686 23.406C65.2326 22.83 64.5036 22.047 63.9816 21.057C63.4776 20.049 63.2256 18.915 63.2256 17.655C63.2256 16.251 63.4776 15.054 63.9816 14.064C64.5036 13.074 65.2146 12.327 66.1146 11.823C67.0146 11.301 68.0316 11.04 69.1656 11.04C70.2816 11.04 71.2896 11.265 72.1896 11.715C73.0896 12.165 73.8006 12.804 74.3226 13.632C74.8446 14.442 75.1056 15.378 75.1056 16.44C75.1056 16.782 75.0876 17.169 75.0516 17.601L74.9976 18.141H66.8706C66.8706 19.851 67.1316 21.102 67.6536 21.894C68.1756 22.668 68.9046 23.055 69.8406 23.055C70.7046 23.055 71.4246 22.866 72.0006 22.488C72.5946 22.092 73.1616 21.534 73.7016 20.814L74.5386 21.435C74.0166 22.245 73.3596 22.92 72.5676 23.46C71.7936 24 70.7496 24.27 69.4356 24.27ZM71.4606 16.926C71.4606 15.234 71.2626 14.037 70.8666 13.335C70.4706 12.615 69.9036 12.255 69.1656 12.255C68.4816 12.255 67.9236 12.624 67.4916 13.362C67.0776 14.082 66.8706 15.27 66.8706 16.926H71.4606ZM78.1239 14.82C78.1239 13.902 77.9979 13.227 77.7459 12.795C77.5119 12.345 77.0169 12.12 76.2609 12.12H75.9909V11.31H78.6639C79.2939 11.31 79.7799 11.4 80.1219 11.58C80.4639 11.742 80.7339 12.03 80.9319 12.444C81.9939 11.508 83.2179 11.04 84.6039 11.04C86.4219 11.04 87.8169 11.661 88.7889 12.903C89.7789 14.127 90.2739 15.711 90.2739 17.655C90.2739 19.599 89.7699 21.192 88.7619 22.434C87.7719 23.658 86.3409 24.27 84.4689 24.27C83.7309 24.27 83.0379 24.135 82.3899 23.865C82.1019 23.757 81.8499 23.622 81.6339 23.46V29.13H78.1239V14.82ZM83.9289 23.055C85.7289 23.055 86.6289 21.255 86.6289 17.655C86.6289 15.999 86.4219 14.685 86.0079 13.713C85.5939 12.741 84.9459 12.255 84.0639 12.255C83.0559 12.255 82.1829 12.624 81.4449 13.362L81.5259 13.74C81.5979 13.956 81.6339 14.262 81.6339 14.658V22.245C81.8319 22.407 82.0479 22.542 82.2819 22.65C82.7859 22.92 83.3349 23.055 83.9289 23.055ZM98.7352 24.27C97.3492 24.27 96.1702 23.973 95.1982 23.379C94.2262 22.785 93.4882 21.993 92.9842 21.003C92.4982 19.995 92.2552 18.879 92.2552 17.655C92.2552 16.431 92.4982 15.324 92.9842 14.334C93.4882 13.326 94.2262 12.525 95.1982 11.931C96.1702 11.337 97.3492 11.04 98.7352 11.04C100.895 11.04 102.29 11.355 102.92 11.985C103.226 12.291 103.415 12.696 103.487 13.2C103.559 13.704 103.595 14.559 103.595 15.765H102.785C102.713 14.631 102.362 13.767 101.732 13.173C101.102 12.561 100.238 12.255 99.1402 12.255C98.1502 12.255 97.3582 12.714 96.7642 13.632C96.1882 14.532 95.9002 15.873 95.9002 17.655C95.9002 21.255 97.0252 23.055 99.2752 23.055C100.139 23.055 100.859 22.866 101.435 22.488C102.029 22.092 102.596 21.534 103.136 20.814L103.973 21.435C103.451 22.245 102.794 22.92 102.002 23.46C101.21 24 100.121 24.27 98.7352 24.27ZM116.936 24.27C116.144 24.27 115.415 24.108 114.749 23.784C114.101 23.442 113.489 22.884 112.913 22.11L110.321 18.708V24H106.811V14.82C106.811 13.902 106.685 13.227 106.433 12.795C106.181 12.345 105.677 12.12 104.921 12.12H104.651V11.31H107.891C108.539 11.31 109.034 11.418 109.376 11.634C109.718 11.85 109.961 12.21 110.105 12.714C110.249 13.2 110.321 13.902 110.321 14.82V17.385L113.588 13.389C114.2 12.651 114.776 12.12 115.316 11.796C115.856 11.472 116.576 11.31 117.476 11.31H118.016V12.012C117.476 12.012 116.99 12.12 116.558 12.336C116.126 12.552 115.712 12.894 115.316 13.362L112.697 16.548L116.288 21.3C117.152 22.47 117.989 23.154 118.799 23.352V24C118.655 24.072 118.394 24.135 118.016 24.189C117.638 24.243 117.278 24.27 116.936 24.27ZM124.21 24.27C122.752 24.27 121.618 23.946 120.808 23.298C120.016 22.632 119.62 21.741 119.62 20.625C119.62 19.725 119.827 18.978 120.241 18.384C120.673 17.79 121.42 17.34 122.482 17.034C123.544 16.728 125.02 16.575 126.91 16.575H127.315C127.315 15.009 127.099 13.902 126.667 13.254C126.235 12.588 125.596 12.255 124.75 12.255C124.048 12.255 123.472 12.426 123.022 12.768C122.572 13.11 122.248 13.749 122.05 14.685H120.565C120.565 14.073 120.601 13.551 120.673 13.119C120.763 12.687 120.952 12.309 121.24 11.985C121.798 11.355 123.148 11.04 125.29 11.04C127.09 11.04 128.458 11.517 129.394 12.471C130.348 13.407 130.825 14.82 130.825 16.71V24H128.53L127.585 22.785H127.45C127.288 23.037 127.036 23.289 126.694 23.541C126.082 24.027 125.254 24.27 124.21 24.27ZM125.02 22.92C125.398 22.92 125.722 22.848 125.992 22.704C126.262 22.542 126.523 22.326 126.775 22.056C127.009 21.804 127.189 21.507 127.315 21.165V17.79H126.91C125.632 17.79 124.705 18.024 124.129 18.492C123.553 18.942 123.265 19.653 123.265 20.625C123.265 21.363 123.418 21.93 123.724 22.326C124.03 22.722 124.462 22.92 125.02 22.92ZM134.391 24.405C133.761 24.405 133.176 24.315 132.636 24.135V23.433C133.464 23.325 134.229 22.659 134.931 21.435L136.551 18.627C135.597 18.483 134.841 18.105 134.283 17.493C133.725 16.863 133.446 16.107 133.446 15.225C133.446 13.875 133.968 12.885 135.012 12.255C136.074 11.625 137.532 11.31 139.386 11.31H146.406V12.12H146.271C145.515 12.12 145.011 12.345 144.759 12.795C144.507 13.227 144.381 13.902 144.381 14.82V24H140.871V18.762H139.683L138.063 21.975C137.649 22.821 137.163 23.442 136.605 23.838C136.065 24.216 135.327 24.405 134.391 24.405ZM139.656 17.655C139.98 17.655 140.259 17.628 140.493 17.574C140.727 17.502 140.853 17.466 140.871 17.466V12.579C140.853 12.579 140.727 12.552 140.493 12.498C140.259 12.426 139.98 12.39 139.656 12.39C138.9 12.39 138.279 12.597 137.793 13.011C137.325 13.407 137.091 14.055 137.091 14.955C137.091 15.855 137.334 16.53 137.82 16.98C138.306 17.43 138.918 17.655 139.656 17.655ZM170.391 28.995C170.247 27.699 170.031 26.691 169.743 25.971C169.473 25.251 169.122 24.738 168.69 24.432C168.258 24.144 167.7 24 167.016 24H155.811V9.69C155.811 8.772 155.685 8.097 155.433 7.665C155.181 7.215 154.677 6.99 153.921 6.99H153.651V6.18H156.891C157.539 6.18 158.034 6.288 158.376 6.504C158.718 6.72 158.961 7.08 159.105 7.584C159.249 8.07 159.321 8.772 159.321 9.69V22.785H166.341V6.18H169.851V22.785H170.796C171.066 22.785 171.291 22.875 171.471 23.055C171.651 23.235 171.741 23.46 171.741 23.73V28.995H170.391ZM174.308 14.82C174.308 13.902 174.182 13.227 173.93 12.795C173.678 12.345 173.174 12.12 172.418 12.12H172.283V11.31H179.519C181.193 11.31 182.516 11.589 183.488 12.147C184.478 12.705 184.973 13.506 184.973 14.55C184.973 15.342 184.676 15.981 184.082 16.467C183.488 16.935 182.642 17.241 181.544 17.385C182.75 17.547 183.713 17.898 184.433 18.438C185.153 18.96 185.513 19.644 185.513 20.49C185.513 22.83 183.515 24 179.519 24H174.308V14.82ZM178.763 16.71C179.483 16.71 180.086 16.521 180.572 16.143C181.076 15.747 181.328 15.216 181.328 14.55C181.328 13.848 181.094 13.317 180.626 12.957C180.176 12.579 179.645 12.39 179.033 12.39C178.601 12.39 178.196 12.453 177.818 12.579V16.71H178.763ZM179.033 22.92C179.879 22.92 180.563 22.713 181.085 22.299C181.607 21.867 181.868 21.264 181.868 20.49C181.868 19.644 181.589 19.005 181.031 18.573C180.491 18.141 179.735 17.925 178.763 17.925H177.818V22.731C178.196 22.857 178.601 22.92 179.033 22.92ZM193.678 24.27C192.436 24.27 191.347 23.982 190.411 23.406C189.475 22.83 188.746 22.047 188.224 21.057C187.72 20.049 187.468 18.915 187.468 17.655C187.468 16.251 187.72 15.054 188.224 14.064C188.746 13.074 189.457 12.327 190.357 11.823C191.257 11.301 192.274 11.04 193.408 11.04C194.524 11.04 195.532 11.265 196.432 11.715C197.332 12.165 198.043 12.804 198.565 13.632C199.087 14.442 199.348 15.378 199.348 16.44C199.348 16.782 199.33 17.169 199.294 17.601L199.24 18.141H191.113C191.113 19.851 191.374 21.102 191.896 21.894C192.418 22.668 193.147 23.055 194.083 23.055C194.947 23.055 195.667 22.866 196.243 22.488C196.837 22.092 197.404 21.534 197.944 20.814L198.781 21.435C198.259 22.245 197.602 22.92 196.81 23.46C196.036 24 194.992 24.27 193.678 24.27ZM195.703 16.926C195.703 15.234 195.505 14.037 195.109 13.335C194.713 12.615 194.146 12.255 193.408 12.255C192.724 12.255 192.166 12.624 191.734 13.362C191.32 14.082 191.113 15.27 191.113 16.926H195.703ZM204.985 12.525H204.175C203.329 12.525 202.69 12.75 202.258 13.2C201.826 13.65 201.61 14.37 201.61 15.36H200.8V13.47C200.8 12.03 201.475 11.31 202.825 11.31H212.572V12.525H208.495V24H204.985V12.525ZM218.183 24.27C216.725 24.27 215.591 23.946 214.781 23.298C213.989 22.632 213.593 21.741 213.593 20.625C213.593 19.725 213.8 18.978 214.214 18.384C214.646 17.79 215.393 17.34 216.455 17.034C217.517 16.728 218.993 16.575 220.883 16.575H221.288C221.288 15.009 221.072 13.902 220.64 13.254C220.208 12.588 219.569 12.255 218.723 12.255C218.021 12.255 217.445 12.426 216.995 12.768C216.545 13.11 216.221 13.749 216.023 14.685H214.538C214.538 14.073 214.574 13.551 214.646 13.119C214.736 12.687 214.925 12.309 215.213 11.985C215.771 11.355 217.121 11.04 219.263 11.04C221.063 11.04 222.431 11.517 223.367 12.471C224.321 13.407 224.798 14.82 224.798 16.71V24H222.503L221.558 22.785H221.423C221.261 23.037 221.009 23.289 220.667 23.541C220.055 24.027 219.227 24.27 218.183 24.27ZM218.993 22.92C219.371 22.92 219.695 22.848 219.965 22.704C220.235 22.542 220.496 22.326 220.748 22.056C220.982 21.804 221.162 21.507 221.288 21.165V17.79H220.883C219.605 17.79 218.678 18.024 218.102 18.492C217.526 18.942 217.238 19.653 217.238 20.625C217.238 21.363 217.391 21.93 217.697 22.326C218.003 22.722 218.435 22.92 218.993 22.92Z" fill="white"/>
</svg>
