<svg width="227" height="50" viewBox="0 0 227 50" fill="none" xmlns="http://www.w3.org/2000/svg">
<path d="M19.8258 46.098C21.0438 46.098 22.0658 45.706 22.8918 44.908L22.2058 44.124C21.5758 44.81 20.7918 45.16 19.8678 45.16C19.0418 45.16 18.3558 44.908 17.8378 44.404C17.3198 43.886 17.0538 43.2 17.0538 42.346C17.0538 40.652 18.1738 39.56 19.8538 39.56C20.7498 39.56 21.5338 39.896 22.1918 40.582L22.8498 39.798C22.0378 39.014 21.0298 38.622 19.8118 38.622C18.6218 38.622 17.6558 38.958 16.9278 39.644C16.2138 40.33 15.8498 41.226 15.8498 42.36C15.8498 43.508 16.2138 44.418 16.9558 45.09C17.6978 45.762 18.6498 46.098 19.8258 46.098ZM32.8658 40.19C32.3478 39.182 31.2838 38.608 29.9398 38.608C28.8198 38.608 27.9238 38.958 27.2658 39.672C26.6078 40.386 26.2858 41.282 26.2858 42.388C26.2858 43.48 26.6078 44.376 27.2518 45.076C27.8958 45.762 28.7778 46.112 29.8838 46.112C31.1858 46.112 32.3058 45.566 32.8518 44.432L32.9498 46H33.9998V38.72H32.9358L32.8658 40.19ZM30.1918 45.146C29.3938 45.146 28.7358 44.894 28.2318 44.404C27.7418 43.9 27.4898 43.228 27.4898 42.374C27.4898 40.638 28.5678 39.574 30.1918 39.574C30.9618 39.574 31.5918 39.84 32.0958 40.358C32.6138 40.876 32.8658 41.548 32.8658 42.374C32.8658 43.2 32.5998 43.858 32.0818 44.376C31.5638 44.894 30.9338 45.146 30.1918 45.146ZM38.4413 46.056C39.2953 46.056 39.8833 45.72 40.2193 45.034C40.5693 44.348 40.7653 43.228 40.8073 41.702C40.8213 40.848 40.8353 40.12 40.8353 39.546H43.9153V46H45.0633V38.72H39.6733V41.618C39.6313 42.948 39.4913 43.872 39.2813 44.39C39.0713 44.894 38.6933 45.146 38.1193 45.146C37.9793 45.146 37.8393 45.132 37.6993 45.104L37.6713 46C37.9513 46.042 38.2033 46.056 38.4413 46.056ZM53.0876 46.112C54.2216 46.112 55.1596 45.776 55.8876 45.09C56.6296 44.404 56.9936 43.508 56.9936 42.374C56.9936 41.24 56.6296 40.344 55.8876 39.658C55.1596 38.972 54.2216 38.622 53.0876 38.622C51.9256 38.622 50.9876 38.958 50.2596 39.644C49.5316 40.33 49.1676 41.24 49.1676 42.374C49.1676 43.508 49.5316 44.404 50.2596 45.09C51.0016 45.776 51.9396 46.112 53.0876 46.112ZM50.3576 42.374C50.3576 41.52 50.6096 40.834 51.1136 40.33C51.6316 39.826 52.2896 39.574 53.0876 39.574C53.8856 39.574 54.5436 39.826 55.0476 40.344C55.5656 40.848 55.8176 41.52 55.8176 42.374C55.8176 43.228 55.5656 43.9 55.0476 44.404C54.5436 44.894 53.8856 45.146 53.0876 45.146C52.2896 45.146 51.6316 44.894 51.1136 44.404C50.6096 43.9 50.3576 43.228 50.3576 42.374ZM62.2267 46V42.808H66.3847V46H67.5467V38.72H66.3847V41.884H62.2267V38.72H61.0647V46H62.2267ZM76.8613 42.682V41.814H72.0593V42.682H76.8613ZM84.8345 46.098C86.0525 46.098 87.0745 45.706 87.9005 44.908L87.2145 44.124C86.5845 44.81 85.8005 45.16 84.8765 45.16C84.0505 45.16 83.3645 44.908 82.8465 44.404C82.3285 43.886 82.0625 43.2 82.0625 42.346C82.0625 40.652 83.1825 39.56 84.8625 39.56C85.7585 39.56 86.5425 39.896 87.2005 40.582L87.8585 39.798C87.0465 39.014 86.0385 38.622 84.8205 38.622C83.6305 38.622 82.6645 38.958 81.9365 39.644C81.2225 40.33 80.8585 41.226 80.8585 42.36C80.8585 43.508 81.2225 44.418 81.9645 45.09C82.7065 45.762 83.6585 46.098 84.8345 46.098ZM94.7525 46V39.602H97.3705V38.72H90.9725V39.602H93.6045V46H94.7525ZM104.991 42.136L103.997 44.838H103.969L102.919 42.136L101.533 38.72H100.301L103.381 46.084L102.443 48.38H103.605L107.455 38.72H106.307L104.991 42.136ZM117.591 38.72H112.369C112.383 40.946 112.215 42.724 111.949 43.676C111.683 44.614 111.515 44.978 111.333 45.216H110.297V47.68H111.207L111.263 46H117.787L117.843 47.68H118.753V45.216H117.591V38.72ZM112.565 45.216C113.139 44.026 113.419 42.122 113.419 39.504H116.443V45.216H112.565ZM123.747 46L128.129 40.176L128.157 40.19C128.143 40.414 128.129 41.226 128.101 42.626V46H129.193V38.72H128.143L123.761 44.488L123.733 44.474C123.747 44.04 123.775 43.34 123.789 42.388V38.72H122.683V46H123.747ZM136.252 38.72C134.53 38.72 133.452 39.686 133.452 41.128C133.452 42.248 134.096 43.102 135.216 43.396L133.298 46H134.6L136.35 43.536H138.59V46H139.738V38.72H136.252ZM136.448 42.78C135.328 42.78 134.628 42.136 134.628 41.128C134.628 40.12 135.314 39.49 136.448 39.49H138.59V42.78H136.448ZM153.59 42.276L156.502 38.72H155.214L152.708 41.87L151.42 41.856V38.72H150.286V46H151.42V42.78H152.736L155.256 46H156.6L153.59 42.276ZM164.399 38.622C163.167 38.622 162.019 39.154 161.473 40.162L161.347 38.72H160.353V48.38H161.515V44.712C162.075 45.608 163.139 46.098 164.385 46.098C165.519 46.098 166.415 45.748 167.073 45.048C167.731 44.334 168.067 43.438 168.067 42.36C168.067 41.282 167.745 40.386 167.087 39.686C166.429 38.972 165.533 38.622 164.399 38.622ZM164.175 45.146C163.405 45.146 162.775 44.88 162.257 44.362C161.739 43.83 161.487 43.158 161.487 42.36C161.487 41.534 161.739 40.876 162.257 40.358C162.775 39.84 163.419 39.574 164.189 39.574C164.987 39.574 165.645 39.826 166.135 40.33C166.625 40.834 166.877 41.506 166.877 42.36C166.877 44.054 165.799 45.146 164.175 45.146ZM178.232 40.19C177.714 39.182 176.65 38.608 175.306 38.608C174.186 38.608 173.29 38.958 172.632 39.672C171.974 40.386 171.652 41.282 171.652 42.388C171.652 43.48 171.974 44.376 172.618 45.076C173.262 45.762 174.144 46.112 175.25 46.112C176.552 46.112 177.672 45.566 178.218 44.432L178.316 46H179.366V38.72H178.302L178.232 40.19ZM175.558 45.146C174.76 45.146 174.102 44.894 173.598 44.404C173.108 43.9 172.856 43.228 172.856 42.374C172.856 40.638 173.934 39.574 175.558 39.574C176.328 39.574 176.958 39.84 177.462 40.358C177.98 40.876 178.232 41.548 178.232 42.374C178.232 43.2 177.966 43.858 177.448 44.376C176.93 44.894 176.3 45.146 175.558 45.146ZM187.335 46.098C188.553 46.098 189.575 45.706 190.401 44.908L189.715 44.124C189.085 44.81 188.301 45.16 187.377 45.16C186.551 45.16 185.865 44.908 185.347 44.404C184.829 43.886 184.563 43.2 184.563 42.346C184.563 40.652 185.683 39.56 187.363 39.56C188.259 39.56 189.043 39.896 189.701 40.582L190.359 39.798C189.547 39.014 188.539 38.622 187.321 38.622C186.131 38.622 185.165 38.958 184.437 39.644C183.723 40.33 183.359 41.226 183.359 42.36C183.359 43.508 183.723 44.418 184.465 45.09C185.207 45.762 186.159 46.098 187.335 46.098ZM197.674 46.112C198.808 46.112 199.746 45.776 200.474 45.09C201.216 44.404 201.58 43.508 201.58 42.374C201.58 41.24 201.216 40.344 200.474 39.658C199.746 38.972 198.808 38.622 197.674 38.622C196.512 38.622 195.574 38.958 194.846 39.644C194.118 40.33 193.754 41.24 193.754 42.374C193.754 43.508 194.118 44.404 194.846 45.09C195.588 45.776 196.526 46.112 197.674 46.112ZM194.944 42.374C194.944 41.52 195.196 40.834 195.7 40.33C196.218 39.826 196.876 39.574 197.674 39.574C198.472 39.574 199.13 39.826 199.634 40.344C200.152 40.848 200.404 41.52 200.404 42.374C200.404 43.228 200.152 43.9 199.634 44.404C199.13 44.894 198.472 45.146 197.674 45.146C196.876 45.146 196.218 44.894 195.7 44.404C195.196 43.9 194.944 43.228 194.944 42.374ZM208.955 42.276L211.867 38.72H210.579L208.073 41.87L206.785 41.856V38.72H205.651V46H206.785V42.78H208.101L210.621 46H211.965L208.955 42.276Z" fill="#163993"/>
<path d="M22.869 25.215C20.925 25.215 19.521 24.765 18.657 23.865C17.811 22.947 17.388 21.462 17.388 19.41V9.852L11.475 24H10.584L3.348 9.312V24H1.998V6.18H5.292L11.826 19.437L17.361 6.18H20.898V19.41C20.898 21.102 21.042 22.344 21.33 23.136C21.618 23.928 22.131 24.396 22.869 24.54V25.215ZM28.5761 24.27C27.1181 24.27 25.9841 23.946 25.1741 23.298C24.3821 22.632 23.9861 21.741 23.9861 20.625C23.9861 19.725 24.1931 18.978 24.6071 18.384C25.0391 17.79 25.7861 17.34 26.8481 17.034C27.9101 16.728 29.3861 16.575 31.2761 16.575H31.6811C31.6811 15.009 31.4651 13.902 31.0331 13.254C30.6011 12.588 29.9621 12.255 29.1161 12.255C28.4141 12.255 27.8381 12.426 27.3881 12.768C26.9381 13.11 26.6141 13.749 26.4161 14.685H24.9311C24.9311 14.073 24.9671 13.551 25.0391 13.119C25.1291 12.687 25.3181 12.309 25.6061 11.985C26.1641 11.355 27.5141 11.04 29.6561 11.04C31.4561 11.04 32.8241 11.517 33.7601 12.471C34.7141 13.407 35.1911 14.82 35.1911 16.71V24H32.8961L31.9511 22.785H31.8161C31.6541 23.037 31.4021 23.289 31.0601 23.541C30.4481 24.027 29.6201 24.27 28.5761 24.27ZM29.3861 22.92C29.7641 22.92 30.0881 22.848 30.3581 22.704C30.6281 22.542 30.8891 22.326 31.1411 22.056C31.3751 21.804 31.5551 21.507 31.6811 21.165V17.79H31.2761C29.9981 17.79 29.0711 18.024 28.4951 18.492C27.9191 18.942 27.6311 19.653 27.6311 20.625C27.6311 21.363 27.7841 21.93 28.0901 22.326C28.3961 22.722 28.8281 22.92 29.3861 22.92ZM44.0497 24.27C42.6637 24.27 41.4847 23.973 40.5127 23.379C39.5407 22.785 38.8027 21.993 38.2987 21.003C37.8127 19.995 37.5697 18.879 37.5697 17.655C37.5697 16.431 37.8127 15.324 38.2987 14.334C38.8027 13.326 39.5407 12.525 40.5127 11.931C41.4847 11.337 42.6637 11.04 44.0497 11.04C46.2097 11.04 47.6047 11.355 48.2347 11.985C48.5407 12.291 48.7297 12.696 48.8017 13.2C48.8737 13.704 48.9097 14.559 48.9097 15.765H48.0997C48.0277 14.631 47.6767 13.767 47.0467 13.173C46.4167 12.561 45.5527 12.255 44.4547 12.255C43.4647 12.255 42.6727 12.714 42.0787 13.632C41.5027 14.532 41.2147 15.873 41.2147 17.655C41.2147 21.255 42.3397 23.055 44.5897 23.055C45.4537 23.055 46.1737 22.866 46.7497 22.488C47.3437 22.092 47.9107 21.534 48.4507 20.814L49.2877 21.435C48.7657 22.245 48.1087 22.92 47.3167 23.46C46.5247 24 45.4357 24.27 44.0497 24.27ZM54.7712 12.525H53.9612C53.1152 12.525 52.4762 12.75 52.0442 13.2C51.6122 13.65 51.3962 14.37 51.3962 15.36H50.5862V13.47C50.5862 12.03 51.2612 11.31 52.6112 11.31H62.3582V12.525H58.2812V24H54.7712V12.525ZM69.4356 24.27C68.1936 24.27 67.1046 23.982 66.1686 23.406C65.2326 22.83 64.5036 22.047 63.9816 21.057C63.4776 20.049 63.2256 18.915 63.2256 17.655C63.2256 16.251 63.4776 15.054 63.9816 14.064C64.5036 13.074 65.2146 12.327 66.1146 11.823C67.0146 11.301 68.0316 11.04 69.1656 11.04C70.2816 11.04 71.2896 11.265 72.1896 11.715C73.0896 12.165 73.8006 12.804 74.3226 13.632C74.8446 14.442 75.1056 15.378 75.1056 16.44C75.1056 16.782 75.0876 17.169 75.0516 17.601L74.9976 18.141H66.8706C66.8706 19.851 67.1316 21.102 67.6536 21.894C68.1756 22.668 68.9046 23.055 69.8406 23.055C70.7046 23.055 71.4246 22.866 72.0006 22.488C72.5946 22.092 73.1616 21.534 73.7016 20.814L74.5386 21.435C74.0166 22.245 73.3596 22.92 72.5676 23.46C71.7936 24 70.7496 24.27 69.4356 24.27ZM71.4606 16.926C71.4606 15.234 71.2626 14.037 70.8666 13.335C70.4706 12.615 69.9036 12.255 69.1656 12.255C68.4816 12.255 67.9236 12.624 67.4916 13.362C67.0776 14.082 66.8706 15.27 66.8706 16.926H71.4606ZM78.1239 14.82C78.1239 13.902 77.9979 13.227 77.7459 12.795C77.5119 12.345 77.0169 12.12 76.2609 12.12H75.9909V11.31H78.6639C79.2939 11.31 79.7799 11.4 80.1219 11.58C80.4639 11.742 80.7339 12.03 80.9319 12.444C81.9939 11.508 83.2179 11.04 84.6039 11.04C86.4219 11.04 87.8169 11.661 88.7889 12.903C89.7789 14.127 90.2739 15.711 90.2739 17.655C90.2739 19.599 89.7699 21.192 88.7619 22.434C87.7719 23.658 86.3409 24.27 84.4689 24.27C83.7309 24.27 83.0379 24.135 82.3899 23.865C82.1019 23.757 81.8499 23.622 81.6339 23.46V29.13H78.1239V14.82ZM83.9289 23.055C85.7289 23.055 86.6289 21.255 86.6289 17.655C86.6289 15.999 86.4219 14.685 86.0079 13.713C85.5939 12.741 84.9459 12.255 84.0639 12.255C83.0559 12.255 82.1829 12.624 81.4449 13.362L81.5259 13.74C81.5979 13.956 81.6339 14.262 81.6339 14.658V22.245C81.8319 22.407 82.0479 22.542 82.2819 22.65C82.7859 22.92 83.3349 23.055 83.9289 23.055ZM98.7352 24.27C97.3492 24.27 96.1702 23.973 95.1982 23.379C94.2262 22.785 93.4882 21.993 92.9842 21.003C92.4982 19.995 92.2552 18.879 92.2552 17.655C92.2552 16.431 92.4982 15.324 92.9842 14.334C93.4882 13.326 94.2262 12.525 95.1982 11.931C96.1702 11.337 97.3492 11.04 98.7352 11.04C100.895 11.04 102.29 11.355 102.92 11.985C103.226 12.291 103.415 12.696 103.487 13.2C103.559 13.704 103.595 14.559 103.595 15.765H102.785C102.713 14.631 102.362 13.767 101.732 13.173C101.102 12.561 100.238 12.255 99.1402 12.255C98.1502 12.255 97.3582 12.714 96.7642 13.632C96.1882 14.532 95.9002 15.873 95.9002 17.655C95.9002 21.255 97.0252 23.055 99.2752 23.055C100.139 23.055 100.859 22.866 101.435 22.488C102.029 22.092 102.596 21.534 103.136 20.814L103.973 21.435C103.451 22.245 102.794 22.92 102.002 23.46C101.21 24 100.121 24.27 98.7352 24.27ZM116.936 24.27C116.144 24.27 115.415 24.108 114.749 23.784C114.101 23.442 113.489 22.884 112.913 22.11L110.321 18.708V24H106.811V14.82C106.811 13.902 106.685 13.227 106.433 12.795C106.181 12.345 105.677 12.12 104.921 12.12H104.651V11.31H107.891C108.539 11.31 109.034 11.418 109.376 11.634C109.718 11.85 109.961 12.21 110.105 12.714C110.249 13.2 110.321 13.902 110.321 14.82V17.385L113.588 13.389C114.2 12.651 114.776 12.12 115.316 11.796C115.856 11.472 116.576 11.31 117.476 11.31H118.016V12.012C117.476 12.012 116.99 12.12 116.558 12.336C116.126 12.552 115.712 12.894 115.316 13.362L112.697 16.548L116.288 21.3C117.152 22.47 117.989 23.154 118.799 23.352V24C118.655 24.072 118.394 24.135 118.016 24.189C117.638 24.243 117.278 24.27 116.936 24.27ZM124.21 24.27C122.752 24.27 121.618 23.946 120.808 23.298C120.016 22.632 119.62 21.741 119.62 20.625C119.62 19.725 119.827 18.978 120.241 18.384C120.673 17.79 121.42 17.34 122.482 17.034C123.544 16.728 125.02 16.575 126.91 16.575H127.315C127.315 15.009 127.099 13.902 126.667 13.254C126.235 12.588 125.596 12.255 124.75 12.255C124.048 12.255 123.472 12.426 123.022 12.768C122.572 13.11 122.248 13.749 122.05 14.685H120.565C120.565 14.073 120.601 13.551 120.673 13.119C120.763 12.687 120.952 12.309 121.24 11.985C121.798 11.355 123.148 11.04 125.29 11.04C127.09 11.04 128.458 11.517 129.394 12.471C130.348 13.407 130.825 14.82 130.825 16.71V24H128.53L127.585 22.785H127.45C127.288 23.037 127.036 23.289 126.694 23.541C126.082 24.027 125.254 24.27 124.21 24.27ZM125.02 22.92C125.398 22.92 125.722 22.848 125.992 22.704C126.262 22.542 126.523 22.326 126.775 22.056C127.009 21.804 127.189 21.507 127.315 21.165V17.79H126.91C125.632 17.79 124.705 18.024 124.129 18.492C123.553 18.942 123.265 19.653 123.265 20.625C123.265 21.363 123.418 21.93 123.724 22.326C124.03 22.722 124.462 22.92 125.02 22.92ZM134.391 24.405C133.761 24.405 133.176 24.315 132.636 24.135V23.433C133.464 23.325 134.229 22.659 134.931 21.435L136.551 18.627C135.597 18.483 134.841 18.105 134.283 17.493C133.725 16.863 133.446 16.107 133.446 15.225C133.446 13.875 133.968 12.885 135.012 12.255C136.074 11.625 137.532 11.31 139.386 11.31H146.406V12.12H146.271C145.515 12.12 145.011 12.345 144.759 12.795C144.507 13.227 144.381 13.902 144.381 14.82V24H140.871V18.762H139.683L138.063 21.975C137.649 22.821 137.163 23.442 136.605 23.838C136.065 24.216 135.327 24.405 134.391 24.405ZM139.656 17.655C139.98 17.655 140.259 17.628 140.493 17.574C140.727 17.502 140.853 17.466 140.871 17.466V12.579C140.853 12.579 140.727 12.552 140.493 12.498C140.259 12.426 139.98 12.39 139.656 12.39C138.9 12.39 138.279 12.597 137.793 13.011C137.325 13.407 137.091 14.055 137.091 14.955C137.091 15.855 137.334 16.53 137.82 16.98C138.306 17.43 138.918 17.655 139.656 17.655ZM170.391 28.995C170.247 27.699 170.031 26.691 169.743 25.971C169.473 25.251 169.122 24.738 168.69 24.432C168.258 24.144 167.7 24 167.016 24H155.811V9.69C155.811 8.772 155.685 8.097 155.433 7.665C155.181 7.215 154.677 6.99 153.921 6.99H153.651V6.18H156.891C157.539 6.18 158.034 6.288 158.376 6.504C158.718 6.72 158.961 7.08 159.105 7.584C159.249 8.07 159.321 8.772 159.321 9.69V22.785H166.341V6.18H169.851V22.785H170.796C171.066 22.785 171.291 22.875 171.471 23.055C171.651 23.235 171.741 23.46 171.741 23.73V28.995H170.391ZM174.308 14.82C174.308 13.902 174.182 13.227 173.93 12.795C173.678 12.345 173.174 12.12 172.418 12.12H172.283V11.31H179.519C181.193 11.31 182.516 11.589 183.488 12.147C184.478 12.705 184.973 13.506 184.973 14.55C184.973 15.342 184.676 15.981 184.082 16.467C183.488 16.935 182.642 17.241 181.544 17.385C182.75 17.547 183.713 17.898 184.433 18.438C185.153 18.96 185.513 19.644 185.513 20.49C185.513 22.83 183.515 24 179.519 24H174.308V14.82ZM178.763 16.71C179.483 16.71 180.086 16.521 180.572 16.143C181.076 15.747 181.328 15.216 181.328 14.55C181.328 13.848 181.094 13.317 180.626 12.957C180.176 12.579 179.645 12.39 179.033 12.39C178.601 12.39 178.196 12.453 177.818 12.579V16.71H178.763ZM179.033 22.92C179.879 22.92 180.563 22.713 181.085 22.299C181.607 21.867 181.868 21.264 181.868 20.49C181.868 19.644 181.589 19.005 181.031 18.573C180.491 18.141 179.735 17.925 178.763 17.925H177.818V22.731C178.196 22.857 178.601 22.92 179.033 22.92ZM193.678 24.27C192.436 24.27 191.347 23.982 190.411 23.406C189.475 22.83 188.746 22.047 188.224 21.057C187.72 20.049 187.468 18.915 187.468 17.655C187.468 16.251 187.72 15.054 188.224 14.064C188.746 13.074 189.457 12.327 190.357 11.823C191.257 11.301 192.274 11.04 193.408 11.04C194.524 11.04 195.532 11.265 196.432 11.715C197.332 12.165 198.043 12.804 198.565 13.632C199.087 14.442 199.348 15.378 199.348 16.44C199.348 16.782 199.33 17.169 199.294 17.601L199.24 18.141H191.113C191.113 19.851 191.374 21.102 191.896 21.894C192.418 22.668 193.147 23.055 194.083 23.055C194.947 23.055 195.667 22.866 196.243 22.488C196.837 22.092 197.404 21.534 197.944 20.814L198.781 21.435C198.259 22.245 197.602 22.92 196.81 23.46C196.036 24 194.992 24.27 193.678 24.27ZM195.703 16.926C195.703 15.234 195.505 14.037 195.109 13.335C194.713 12.615 194.146 12.255 193.408 12.255C192.724 12.255 192.166 12.624 191.734 13.362C191.32 14.082 191.113 15.27 191.113 16.926H195.703ZM204.985 12.525H204.175C203.329 12.525 202.69 12.75 202.258 13.2C201.826 13.65 201.61 14.37 201.61 15.36H200.8V13.47C200.8 12.03 201.475 11.31 202.825 11.31H212.572V12.525H208.495V24H204.985V12.525ZM218.183 24.27C216.725 24.27 215.591 23.946 214.781 23.298C213.989 22.632 213.593 21.741 213.593 20.625C213.593 19.725 213.8 18.978 214.214 18.384C214.646 17.79 215.393 17.34 216.455 17.034C217.517 16.728 218.993 16.575 220.883 16.575H221.288C221.288 15.009 221.072 13.902 220.64 13.254C220.208 12.588 219.569 12.255 218.723 12.255C218.021 12.255 217.445 12.426 216.995 12.768C216.545 13.11 216.221 13.749 216.023 14.685H214.538C214.538 14.073 214.574 13.551 214.646 13.119C214.736 12.687 214.925 12.309 215.213 11.985C215.771 11.355 217.121 11.04 219.263 11.04C221.063 11.04 222.431 11.517 223.367 12.471C224.321 13.407 224.798 14.82 224.798 16.71V24H222.503L221.558 22.785H221.423C221.261 23.037 221.009 23.289 220.667 23.541C220.055 24.027 219.227 24.27 218.183 24.27ZM218.993 22.92C219.371 22.92 219.695 22.848 219.965 22.704C220.235 22.542 220.496 22.326 220.748 22.056C220.982 21.804 221.162 21.507 221.288 21.165V17.79H220.883C219.605 17.79 218.678 18.024 218.102 18.492C217.526 18.942 217.238 19.653 217.238 20.625C217.238 21.363 217.391 21.93 217.697 22.326C218.003 22.722 218.435 22.92 218.993 22.92Z" fill="#1F3744"/>
</svg>
